<?xml version="1.0" encoding="utf-8" ?>
<svg xmlns="http://www.w3.org/2000/svg" xmlns:xlink="http://www.w3.org/1999/xlink" width="512" height="512">
	<path fill="#264653" d="M78.6293 146.923L63.6725 146.905C58.0907 146.892 51.119 147.486 46.089 144.663L45.75 144.468C30.4516 135.758 39.6723 114.615 48.1332 104.444C63.5979 85.8539 78.7623 86.7763 100.285 86.7753L159.581 86.8005C162.716 86.7939 165.885 86.8934 169.008 86.5949L168.858 85.6219C168.225 83.0485 168.327 80.2056 168.312 77.5643L168.281 66.209C168.264 60.9867 167.767 55.1877 168.491 50.0464C171.53 28.4717 190.034 13.7706 211.404 13.7487L301.504 13.7423C321.618 13.7673 339.394 27.8403 343.195 47.9428C343.95 51.935 343.878 55.9878 343.886 60.0308L343.859 81.9156C343.85 83.403 343.955 84.9712 343.633 86.4285L419 86.8164C441.554 86.8794 458.498 91.5596 469.815 113.593C472.853 119.507 476.067 128.227 473.898 134.871L473.213 136.75C470.257 143.105 464.476 146.622 457.628 146.827L433.458 146.861L78.6293 146.923ZM227.957 37.5589L210.135 37.6551C204.731 37.981 198.39 42.1315 195.506 46.5L195.326 46.762C194.389 48.1457 193.744 49.6595 193.257 51.25L193.131 51.6437C192.26 54.4141 192.482 57.6618 192.485 60.5431L192.591 75.141C192.673 78.8855 193.095 82.7118 192.526 86.4317C196.66 86.8693 200.847 86.7586 205 86.768L283.438 86.7845L307.525 86.7952C311.32 86.7902 315.599 87.1646 319.344 86.5961L319.417 67.9463C319.449 56.0388 319.534 40.8924 304.609 37.828C302.037 37.2998 298.964 37.5616 296.334 37.5585L227.957 37.5589Z"/>
	<path fill="#2A9D8F" d="M78.6293 146.96L433.458 146.912L399.788 440.861C399.119 447.622 398.643 454.674 396.862 461.249C392.125 478.74 376.203 492.111 358.375 494.61C354.352 495.174 350.052 494.97 345.992 494.971L167.635 494.961C163.589 494.96 159.245 495.226 155.229 494.786L152 494.246C132.887 490.423 118.247 477.951 114.253 458.125C112.638 450.107 112.286 441.677 111.298 433.549L78.6293 146.96ZM254.175 186.203C165.93 186.484 110.218 283.577 152.084 359.424C173.606 398.412 212.62 420.87 257.363 421.147C316.217 419.975 366.329 375.36 372.299 316.601C379.105 249.622 330.292 191.267 263.899 186.326C260.683 186.087 257.4 186.179 254.175 186.203Z"/>
	<path fill="#E9C46A" d="M254.175 186.203C257.4 186.179 260.683 186.087 263.899 186.326C330.292 191.267 379.105 249.622 372.299 316.601C366.329 375.36 316.217 419.975 257.363 421.147C212.62 420.87 173.606 398.412 152.084 359.424C110.218 283.577 165.93 186.484 254.175 186.203ZM209.893 231.601C194.324 232.911 183.344 248.471 190.895 262.588C194.116 268.611 200.174 273.561 205.128 278.139L218.969 291.137C220.897 293.041 223.79 295.315 225.06 297.656L198.263 324.132C187.907 334.361 182.687 343.924 192.618 357.111C195.773 361.3 202.135 364.41 207.195 365.137C219.282 366.875 228.25 355.57 235.855 347.898L255.704 327.171C260.845 333.543 266.842 339.34 272.543 345.215C279.579 352.466 288.122 363.753 298.893 365.265L299.92 365.411C305.413 365.737 309.719 364.248 314.227 361.199L314.569 360.973C318.876 358.066 322.28 352.711 323.158 347.57L323.331 346.46C325.367 333.485 315.074 325.694 306.804 317.658L285.763 297.414L313.794 270.322C316.332 267.739 319.026 264.968 320.749 261.75C327.378 249.379 317.213 233.856 303.345 231.65C293.037 230.009 285.864 237.325 279.125 243.746L263.515 259.179C260.961 261.792 258.419 264.896 255.518 267.088C250.816 263.526 246.716 259.056 242.623 254.826L231.264 243.382C225.307 237.458 219.131 230.818 209.893 231.601Z"/>
</svg>
