<?xml version="1.0" encoding="utf-8" ?>
<svg xmlns="http://www.w3.org/2000/svg" xmlns:xlink="http://www.w3.org/1999/xlink" width="512" height="511">
	<path fill="#343C42" d="M16.627 449.674C39.2804 450.968 56.7216 471.07 59.9616 492.614L59.4032 492.899C56.4837 494.154 53.2111 494.931 50.146 495.749L37.1311 499.306C31.2878 500.981 17.0056 507.289 11.1844 504.882L10.875 504.748C-1.78604 499.391 3.34993 489.6 6.33439 480.247L16.627 449.674Z"/>
	<path fill="#F9C74F" d="M35.0245 392.246C37.5632 394.424 39.8189 397.008 42.1879 399.375C55.0731 412.247 71.3118 420.915 83.6557 434.465L119.701 472.549C121.823 474.847 123.982 477.025 125.525 479.772L59.9616 492.614C56.7216 471.07 39.2804 450.968 16.627 449.674L35.0245 392.246Z"/>
	<path fill="#F94144" d="M420.425 88.5449L376.117 47.3264L396.472 27.199C403.795 19.7677 410.894 10.7948 420.185 5.79C438.429 -4.03849 452.236 5.89178 464.523 18.1384L478.307 31.7655C487.416 40.4538 506.774 54.5132 509.494 67.049C513.271 84.4543 503.359 94.5712 491.922 105.865L476.903 121.103C474.995 123.196 472.326 125.532 470.909 127.964L470.704 128.128C469.538 128.96 468.123 129.274 467.091 130.375C466.647 130.849 466.773 131.188 466.126 131.597L465.902 132.101C465.94 132.598 465.934 132.401 465.903 132.918L464.318 131.482L420.425 88.5449Z"/>
	<path fill="#F8961E" d="M177.803 425.565L212.085 423.753C218.554 423.36 225.023 423.051 231.496 422.596L309.724 417.688L319.945 416.784L350.481 414.828L419.743 410.376C424.84 409.928 430.232 408.419 435.125 410.5L466.813 424.899C472.189 427.351 482.307 430.781 472.25 436.496L452.367 447.625C447.435 450.471 442.64 453.724 437.613 456.369C432.364 459.13 425.644 458.257 419.928 458.756L402.139 460.288L363.912 462.598L346.57 464.253L294.349 468.262L281.284 468.77L145.428 478.551C139.053 478.834 132.778 479.702 126.376 479.765C129.326 476.332 131.783 472.54 134.847 469.122L172.055 431.077C173.922 429.213 175.75 427.224 177.803 425.565Z"/>
	<path fill="#F3722C" d="M420.425 88.5449L464.318 131.482L465.903 132.918C465.934 132.401 465.94 132.598 465.902 132.101L466.126 131.597C466.773 131.188 466.647 130.849 467.091 130.375C468.123 129.274 469.538 128.96 470.704 128.128L470.909 127.964L471.163 128.25C477.952 135.615 492.486 138.197 492.435 152.625C492.395 163.902 483.287 169.933 476.352 177.412L359.777 295.92C357.839 297.995 354.13 303.431 350.949 303.353C344.759 303.2 342.382 296.745 346.96 291.227C350.335 287.159 354.458 283.488 358.244 279.795L451.963 184.634C453.156 183.324 454.874 181.817 455.712 180.289L437.76 162.58C436.652 163.158 435.565 164.444 434.651 165.312L333.244 268.548L284.296 317.416C283.198 318.555 282.006 320.115 280.751 321.052L280.34 320.726C279.636 320.718 278.888 320.76 278.252 320.412L265.244 311.766C262.568 309.958 259.756 307.835 257.297 305.724L254.249 303.254C251.625 301.3 247.282 298.122 245.054 295.806L244.499 295.251C242.498 294.082 239.853 290.55 239.122 288.392L236.499 282.501C236.092 281.671 235.706 280.564 234.75 280.433L218.251 296.501C211.085 302.224 204.63 309.259 198.141 315.743L185.688 326.938C187.272 326.017 195.626 317.767 197.671 315.717L206.791 306.565C209.028 304.315 211.383 302.303 213.562 300.001C214.935 299.996 223.598 290.735 226.137 288.445L234.377 279.875C234.785 279.543 235.15 279.253 235.484 278.844L236.312 277.812C238.168 274.623 242.642 271.257 244.312 268.562C245.978 265.876 249.371 263.991 251.062 261.312C252.623 258.841 258.626 253.253 260.88 251.016C262.407 249.502 267.768 244.211 268.312 243.312C270.661 239.442 279.084 233.495 281.249 229.999C282.033 228.733 283.27 227.711 284.347 226.638L289.818 221.198C291.409 219.622 293.448 217.757 294.71 215.95L294.894 215.679L384.008 129.447C385.508 127.904 396.53 114.716 396.814 114.552L396.626 114.349C401.361 110.207 405.408 104.833 409.562 100.105L420.425 88.5449ZM464.318 131.482C460.842 141.539 449.949 149.495 442.018 156.327C448.791 162.271 456.536 166.964 462.9 173.438L469.151 167.062C484.593 151.178 481.948 148.112 465.903 132.918L464.318 131.482Z"/>
	<path fill="#D3E4FB" d="M420.425 88.5449L464.318 131.482C460.842 141.539 449.949 149.495 442.018 156.327C440.053 155.03 438.306 153.238 436.509 151.712L396.814 114.552L396.626 114.349C401.361 110.207 405.408 104.833 409.562 100.105L420.425 88.5449Z"/>
	<defs>
		<linearGradient id="gradient_0" gradientUnits="userSpaceOnUse" x1="209.21402" y1="76.611771" x2="224.25691" y2="475.80679">
			<stop offset="0" stop-color="#F7AC19"/>
			<stop offset="1" stop-color="#FF2356"/>
		</linearGradient>
	</defs>
	<path fill="url(#gradient_0)" d="M269.537 154.204L351.749 71.1624L396.626 114.349L396.814 114.552C396.53 114.716 385.508 127.904 384.008 129.447L294.894 215.679L294.71 215.95C293.448 217.757 291.409 219.622 289.818 221.198L284.347 226.638C283.27 227.711 282.033 228.733 281.249 229.999C279.084 233.495 270.661 239.442 268.312 243.312C267.768 244.211 262.407 249.502 260.88 251.016C258.626 253.253 252.623 258.841 251.062 261.312C249.371 263.991 245.978 265.876 244.312 268.562C242.642 271.257 238.168 274.623 236.312 277.812L235.484 278.844C235.15 279.253 234.785 279.543 234.377 279.875L226.137 288.445C223.598 290.735 214.935 299.996 213.562 300.001C211.383 302.303 209.028 304.315 206.791 306.565L197.671 315.717C195.626 317.767 187.272 326.017 185.688 326.938L198.141 315.743C204.63 309.259 211.085 302.224 218.251 296.501L234.75 280.433C235.706 280.564 236.092 281.671 236.499 282.501L239.122 288.392C239.853 290.55 242.498 294.082 244.499 295.251L245.054 295.806C247.282 298.122 251.625 301.3 254.249 303.254L257.297 305.724C259.756 307.835 262.568 309.958 265.244 311.766L278.252 320.412C278.888 320.76 279.636 320.718 280.34 320.726L280.751 321.052L177.803 425.565C175.75 427.224 173.922 429.213 172.055 431.077L134.847 469.122C131.783 472.54 129.326 476.332 126.376 479.767L125.525 479.772C123.982 477.025 121.823 474.847 119.701 472.549L83.6557 434.465C71.3118 420.915 55.0731 412.247 42.1879 399.375C39.8189 397.008 37.5632 394.424 35.0245 392.246C36.1878 387.112 40.2005 384.65 43.7858 381.122L105.012 319.555L212.185 211.24L269.537 154.204Z"/>
</svg>
